<?xml version="1.0" encoding="UTF-8"?>
<svg id="Layer_2" data-name="Layer 2" xmlns="http://www.w3.org/2000/svg" viewBox="0 0 562 193.07">
  <g id="Layer_1-2" data-name="Layer 1">
    <g>
      <g>
        <path d="M189.32,119.29v14.89c0,1.48,.14,2.51,.42,3.1s.69,.97,1.22,1.14v1.14h-7.85c-.27-.93-.44-1.54-.52-1.83-.08-.29-.11-.79-.11-1.48-1.09,1.18-2.16,2.05-3.2,2.62-1.65,.94-3.54,1.41-5.68,1.41-2.3,0-4.21-.62-5.73-1.87-1.77-1.45-2.65-3.52-2.65-6.21,0-2.54,.77-4.59,2.3-6.16,1.33-1.36,3.22-2.24,5.68-2.62l6.51-.93c.96-.17,1.63-.42,2.01-.77,.38-.34,.57-.81,.57-1.4,0-1.35-.55-2.25-1.64-2.73-.72-.32-1.76-.48-3.1-.48-1.61,0-2.78,.43-3.51,1.29-.49,.56-.8,1.4-.93,2.55h-7.04c.39-3.84,1.83-6.49,4.34-7.97,1.87-1.09,4.53-1.64,7.97-1.64,2.79,0,5.1,.46,6.91,1.39,2.69,1.35,4.04,3.53,4.04,6.56Zm-7.04,10.35v-3.51c-.37,.34-.89,.61-1.56,.82-.67,.21-1.8,.44-3.39,.69-1.59,.25-2.72,.62-3.39,1.11-.98,.66-1.46,1.67-1.46,3.05,0,1.13,.38,1.99,1.14,2.57,.62,.49,1.35,.73,2.17,.73,1.7,0,3.21-.5,4.53-1.5,1.32-1,1.98-2.33,1.98-3.97Z"/>
        <path d="M223.57,112.05v27.5h-6.91v-3.94c-1.83,3.11-4.66,4.67-8.48,4.67-2.89,0-5.15-.82-6.76-2.45-1.77-1.72-2.65-4.28-2.65-7.7v-18.09h7.24v17.06c0,1.93,.5,3.31,1.49,4.14,.77,.62,1.86,.93,3.26,.93s2.69-.43,3.68-1.29c1.28-1.11,1.92-2.78,1.92-5.02v-15.82h7.22Z"/>
        <path d="M254.43,120.43h-7.12c-.22-1.16-.56-1.99-1.03-2.47-.76-.76-2.04-1.14-3.84-1.14s-2.97,.29-3.66,.88c-.52,.44-.78,1.03-.78,1.79,0,1.11,1.48,1.98,4.44,2.6,4.37,.93,7.15,1.67,8.33,2.22,2.99,1.38,4.49,3.53,4.49,6.46,0,3.55-1.46,6.13-4.39,7.75-2.14,1.18-4.7,1.77-7.7,1.77-3.68,0-6.67-.66-8.96-1.97-2.86-1.65-4.29-4.16-4.29-7.54h7.44c0,1.24,.44,2.19,1.31,2.83,1.03,.81,2.59,1.21,4.69,1.21,1.68,0,2.92-.34,3.71-1.03,.62-.52,.93-1.14,.93-1.87,0-1.14-1.46-2.04-4.39-2.7-4.47-.96-7.21-1.68-8.2-2.17-2.98-1.38-4.47-3.55-4.47-6.51,0-2.44,.77-4.47,2.3-6.08,1.92-2.07,4.84-3.1,8.78-3.1,3.48,0,6.22,.53,8.2,1.59,2.79,1.48,4.19,3.98,4.19,7.49Z"/>
        <path d="M285.51,119.29v14.89c0,1.48,.14,2.51,.42,3.1s.69,.97,1.22,1.14v1.14h-7.85c-.27-.93-.44-1.54-.52-1.83-.08-.29-.11-.79-.11-1.48-1.09,1.18-2.16,2.05-3.2,2.62-1.65,.94-3.54,1.41-5.68,1.41-2.3,0-4.21-.62-5.73-1.87-1.77-1.45-2.65-3.52-2.65-6.21,0-2.54,.77-4.59,2.3-6.16,1.33-1.36,3.22-2.24,5.68-2.62l6.51-.93c.96-.17,1.63-.42,2.01-.77,.38-.34,.57-.81,.57-1.4,0-1.35-.55-2.25-1.64-2.73-.72-.32-1.76-.48-3.1-.48-1.61,0-2.78,.43-3.51,1.29-.49,.56-.8,1.4-.93,2.55h-7.04c.39-3.84,1.83-6.49,4.34-7.97,1.87-1.09,4.53-1.64,7.97-1.64,2.79,0,5.1,.46,6.91,1.39,2.69,1.35,4.04,3.53,4.04,6.56Zm-7.04,10.35v-3.51c-.37,.34-.89,.61-1.56,.82-.67,.21-1.8,.44-3.39,.69-1.59,.25-2.72,.62-3.39,1.11-.98,.66-1.46,1.67-1.46,3.05,0,1.13,.38,1.99,1.14,2.57,.62,.49,1.35,.73,2.17,.73,1.7,0,3.21-.5,4.53-1.5,1.32-1,1.98-2.33,1.98-3.97Z"/>
        <path d="M311.08,129.53h7.34c-.27,2.44-1.13,4.58-2.57,6.41-2.27,2.89-5.62,4.34-10.04,4.34-4.64,0-8.05-1.57-10.22-4.72-1.65-2.37-2.47-5.38-2.47-9.03,0-4.69,1.03-8.33,3.1-10.9,2.27-2.86,5.64-4.29,10.12-4.29,2.96,0,5.51,.67,7.65,2.02,2.96,1.85,4.44,4.69,4.44,8.53h-7.34c-.13-1.11-.51-2.06-1.14-2.85-.86-1.08-1.96-1.61-3.31-1.61h-.3c-2.07,0-3.6,.9-4.59,2.7-.79,1.41-1.19,3.17-1.19,5.27,0,2.41,.24,4.25,.71,5.53,.86,2.24,2.48,3.36,4.87,3.36,1.61,0,2.9-.64,3.86-1.92,.72-.96,1.09-1.9,1.09-2.83Z"/>
        <path d="M351.05,120.53v19.03h-7.24v-16.75c0-1.51-.2-2.65-.61-3.41-.72-1.31-2.07-1.97-4.04-1.97-1.65,0-3.01,.56-4.08,1.67-1.07,1.11-1.6,2.66-1.6,4.64v15.82h-7.24v-37.09h7.24v13.12c.52-1.18,1.53-2.18,3.03-3,1.5-.82,3.17-1.24,5.02-1.24,2.83,0,5.09,.76,6.79,2.27,1.82,1.65,2.73,3.95,2.73,6.91Z"/>
        <path d="M369.31,104.63v7.42h4.54v5.17h-4.54v14.89c0,.93,.16,1.54,.49,1.83s1.16,.44,2.49,.44l1.56-.1v5.48c-.56,.07-1.17,.1-1.84,.1h-2.5c-2.96,0-5-.53-6.11-1.59-.89-.86-1.34-2.32-1.34-4.39v-16.65h-3.73v-5.17h3.73v-7.42h7.24Z"/>
        <path d="M381.03,139.55v-27.5h6.94v4.77c1.09-1.83,2.02-3.1,2.78-3.79,1.28-1.13,2.9-1.69,4.87-1.69,.61,0,1.09,.03,1.44,.1v7.34c-.3-.03-.67-.06-1.11-.08-.44-.02-.76-.03-.96-.03-2.56,0-4.38,.71-5.48,2.12-.82,1.06-1.24,2.52-1.24,4.39v14.36h-7.24Z"/>
        <path d="M145.24,139.55v-27.5h6.94v4.77c1.09-1.83,2.02-3.1,2.78-3.79,1.28-1.13,2.9-1.69,4.87-1.69,.61,0,1.09,.03,1.44,.1v7.34c-.3-.03-.67-.06-1.11-.08-.44-.02-.76-.03-.96-.03-2.56,0-4.38,.71-5.48,2.12-.82,1.06-1.24,2.52-1.24,4.39v14.36h-7.24Z"/>
        <path d="M426.14,119.29v14.89c0,1.48,.14,2.51,.42,3.1s.69,.97,1.22,1.14v1.14h-7.85c-.27-.93-.44-1.54-.52-1.83s-.11-.79-.11-1.48c-1.09,1.18-2.16,2.05-3.2,2.62-1.65,.94-3.54,1.41-5.68,1.41-2.3,0-4.21-.62-5.73-1.87-1.77-1.45-2.65-3.52-2.65-6.21,0-2.54,.77-4.59,2.3-6.16,1.33-1.36,3.22-2.24,5.68-2.62l6.51-.93c.96-.17,1.63-.42,2.01-.77,.38-.34,.57-.81,.57-1.4,0-1.35-.55-2.25-1.64-2.73-.72-.32-1.76-.48-3.1-.48-1.61,0-2.78,.43-3.51,1.29-.49,.56-.8,1.4-.93,2.55h-7.04c.39-3.84,1.83-6.49,4.34-7.97,1.87-1.09,4.53-1.64,7.97-1.64,2.79,0,5.1,.46,6.91,1.39,2.69,1.35,4.04,3.53,4.04,6.56Zm-7.04,10.35v-3.51c-.37,.34-.89,.61-1.56,.82-.67,.21-1.8,.44-3.39,.69-1.59,.25-2.72,.62-3.39,1.11-.98,.66-1.46,1.67-1.46,3.05,0,1.13,.38,1.99,1.14,2.57,.62,.49,1.35,.73,2.17,.73,1.7,0,3.21-.5,4.53-1.5s1.98-2.33,1.98-3.97Z"/>
        <path d="M460.2,120.53v19.03h-7.24v-16.75c0-1.51-.2-2.65-.61-3.41-.72-1.31-2.07-1.97-4.04-1.97-1.65,0-3.01,.56-4.08,1.67-1.07,1.11-1.6,2.66-1.6,4.64v15.82h-7.24v-27.5h6.94v4.04c.82-1.31,1.68-2.31,2.57-3,1.55-1.16,3.47-1.74,5.78-1.74,2.83,0,5.09,.76,6.79,2.27,1.82,1.65,2.73,3.95,2.73,6.91Z"/>
        <path d="M528.79,102.03v6.71h-7.24v-6.71h7.24Zm-7.24,10.02h7.24v27.5h-7.24v-27.5Z"/>
        <path d="M557.88,119.29v14.89c0,1.48,.13,2.51,.41,3.1s.69,.97,1.23,1.14v1.14h-7.85c-.27-.93-.45-1.54-.52-1.83s-.11-.79-.11-1.48c-1.09,1.18-2.16,2.05-3.2,2.62-1.65,.94-3.54,1.41-5.68,1.41-2.3,0-4.21-.62-5.73-1.87-1.77-1.45-2.65-3.52-2.65-6.21,0-2.54,.77-4.59,2.3-6.16,1.33-1.36,3.22-2.24,5.68-2.62l6.51-.93c.96-.17,1.62-.42,2-.77,.38-.34,.57-.81,.57-1.4,0-1.35-.55-2.25-1.64-2.73-.72-.32-1.76-.48-3.1-.48-1.61,0-2.78,.43-3.51,1.29-.49,.56-.8,1.4-.93,2.55h-7.04c.39-3.84,1.83-6.49,4.34-7.97,1.87-1.09,4.53-1.64,7.97-1.64,2.79,0,5.1,.46,6.91,1.39,2.69,1.35,4.04,3.53,4.04,6.56Zm-7.04,10.35v-3.51c-.37,.34-.89,.61-1.56,.82-.67,.21-1.81,.44-3.4,.69-1.59,.25-2.72,.62-3.39,1.11-.98,.66-1.46,1.67-1.46,3.05,0,1.13,.38,1.99,1.14,2.57,.62,.49,1.35,.73,2.17,.73,1.7,0,3.2-.5,4.53-1.5,1.32-1,1.99-2.33,1.99-3.97Z"/>
        <g>
          <path d="M498.97,159.47l-.61,4.01h-4.11l.61-4.01h4.11Z"/>
          <path d="M512.8,158.16h3.9c-.34,1.3-.97,2.43-1.88,3.4-1.44,1.54-3.33,2.3-5.68,2.3-2.47,0-4.15-.84-5.05-2.51-.68-1.26-.88-2.86-.58-4.8,.38-2.49,1.22-4.42,2.53-5.79,1.44-1.52,3.34-2.28,5.72-2.28,1.57,0,2.87,.36,3.9,1.07,1.42,.98,1.98,2.49,1.67,4.53h-3.9c.02-.59-.11-1.09-.37-1.51-.37-.57-.91-.86-1.62-.86h-.16c-1.1,0-1.98,.48-2.66,1.43-.53,.75-.89,1.68-1.06,2.8-.19,1.28-.22,2.26-.07,2.93,.27,1.19,1.05,1.78,2.32,1.78,.86,0,1.59-.34,2.21-1.02,.46-.51,.73-1.01,.8-1.5Z"/>
          <path d="M535.32,156.17c-.38,2.51-1.43,4.45-3.14,5.82-1.55,1.25-3.38,1.88-5.5,1.88s-3.74-.63-4.9-1.88c-1.31-1.38-1.77-3.32-1.39-5.82,.38-2.5,1.43-4.44,3.14-5.82,1.54-1.24,3.37-1.86,5.5-1.86s3.76,.62,4.93,1.86c1.29,1.38,1.75,3.31,1.37,5.82Zm-3.95,0c.18-1.21,.12-2.18-.19-2.91-.43-1.03-1.32-1.54-2.65-1.54s-2.35,.5-3.08,1.51c-.55,.77-.92,1.75-1.1,2.93-.18,1.21-.12,2.18,.19,2.91,.42,1.03,1.31,1.54,2.65,1.54s2.34-.5,3.08-1.51c.55-.77,.92-1.75,1.1-2.93Z"/>
          <path d="M560.09,153.37l-1.54,10.1h-3.85l1.35-8.9c.15-1,.07-1.73-.23-2.18-.31-.45-.78-.68-1.42-.68-.91,0-1.61,.26-2.09,.78-.48,.52-.79,1.25-.94,2.19l-1.33,8.78h-3.85l1.33-8.78c.14-.94,.15-1.59,.03-1.96-.23-.68-.85-1.02-1.88-1.02-.86,0-1.51,.26-1.97,.77-.45,.51-.75,1.21-.88,2.08l-1.35,8.9h-3.85l2.22-14.61h3.68l-.33,2.14c.49-.68,1.02-1.22,1.59-1.62,.88-.6,1.88-.9,3.02-.9,.98,0,1.77,.19,2.35,.58,.5,.33,.96,.91,1.36,1.73,.72-.84,1.4-1.43,2.06-1.78s1.39-.52,2.19-.52c1.5,0,2.64,.4,3.41,1.21,.84,.88,1.14,2.1,.9,3.67Z"/>
        </g>
        <path d="M562,144.76c-23.29-1.56-36.17-1.97-61.52-1.17l.53-1.17c1.06-2.58,2.3-5.67,2.83-7.18,1-2.84,7.43-19.13,8.2-25.54,.76-6.26-2.42-8.34-4.3-6.56-1.31,1.19-2.26,2.49-3.35,3.8-1.23,1.48-2.63,2.97-3.87,4.28-.53,.55-.89,.93-1.24,.94-.19,0-.56-.35-1.11-.7-.93-.51-1.67-1.22-2.41-1.93-1.66-1.22-3.31-1.72-5.12-1.67-1.08,.03-2.16,.24-3.25,.63-.89,.39-1.97,.79-2.86,1.35-6.06,3.98-10.8,9.36-14.25,15.81-1.21,2.21-2.05,4.4-2.35,6.77-.16,.73-.14,1.27-.12,2-.15,1.09,.24,2.35,1.17,3.23,2.06,1.76,2.98,2.64,4.25,2.61,.9-.02,2.15-.61,3.93-1.92,2.67-1.7,5.15-3.95,7.45-6.19,4.41-4.29,9-8.59,13.24-13.05,.71-.57,1.06-1.11,1.78-1.13,.18,0,.55,.16,.91,.34,.2,.17,.55,.16,.73,.16,.37-.01,.54-.38,.71-.93l-.04-1.45c-.02-.72,.14-1.27,.67-1.83,1.59-1.31,2.82-2.62,4.42-3.92,.02,.54-.07,.95-.19,1.3-1.29,6.87-7.57,21.79-9.11,25.63-.33,.82-.64,1.57-.95,2.31-.46,1.06-.92,2.13-1.37,3.19-.18,.41-.31,.67-.47,1.03-.02,.03-.03,.04-.05,.06-6.78,.55-13.79,1.62-20.85,3.06,0,0-.48,.1-.47,.11-4.68,1.3-9.13,3.12-13.39,5.53-3.5,2.01-6.71,4.47-9.18,7.55-2.82,3.45-4.82,7.15-5.06,11.63l.02,.82c.07,2.55,.86,4.9,2.74,6.86,2.25,2.31,5.11,3.42,8.14,4.06,1.56,.32,3.02,.47,4.48,.43,2.82-.08,5.54-.79,8.24-1.78,4.78-1.77,8.71-4.8,12.27-8.27,2.84-2.9,5.39-6.17,7.67-9.51,3.67-5.38,6.7-11.19,9.36-17.08l.86-1.92c15.74-.81,35.29-1.06,62.3-.55Zm-87.62-8.7l-.02-.55c-.03-.91,.51-1.28,.85-1.84,2.62-3.88,5.6-7.23,9.15-10.4,2.65-2.43,5.49-4.87,8.7-6.59,.89-.57,1.97-.96,3.24-1-6.69,7.26-13.19,14.69-21.92,20.37Zm19.04,10.9s-.03,.07-.03,.1c-2.84,6.19-5.86,12.2-9.53,17.95-2.02,3.07-4.3,6.05-6.87,8.67-3.91,3.85-8.29,6.79-13.73,8.13-1.36,.31-2.81,.53-4.18,.57-1.1,.03-2.28-.03-3.38-.18-3.48-.63-7.87-4.25-7.92-9.54l-.02-.73c.01-2.83,1.03-5.5,2.51-7.91,2.01-3.24,4.58-5.78,7.53-7.96,4.83-3.51,10.06-5.75,15.75-7.37,.04-.01,.09-.02,.13-.03,1.05-.26,8.47-2.01,20.33-2.98l-.59,1.26Z"/>
      </g>
      <g>
        <path d="M112.87,49.29c-5.01-2.27-5.86-.85-4.73-.09,15.78,10.49,16.92,20.98,17.67,29.86,.76,8.88-6.43,23.44-16.25,32.79-9.83,9.36-15.22,21.74-18.71,29.96-3.5,8.22-1.13,17.39-2.36,18.05-1.23,.66-3.21-2.84-4.73-7.84-1.51-5.01-.85-17.96-3.87-26.37-3.02-8.41-10.3-15.36-12.33-17.81-2.03-2.46-5.86-3.45-3.54-.94,2.32,2.5,7.37,10.92,6.24,20.65-1.13,9.73-4.35,20.41-4.25,23.72,.09,3.31-1.23,3.5-1.98,1.8-.76-1.7-6.62-11.43-7.75-13.14-1.13-1.7-13.04-15.4-13.89-32.32-.85-16.92,4.13-30.81,5.13-33.96,1.01-3.15-1.2-2.96-1.45-2.21-.25,.76-4.41,7.06-10.27,11.4-5.86,4.35-9.07,9.83-9.89,13.42-.82,3.59-1.13,4.6-1.58,3.91-6.43-10.9-8.69-25.01-4.85-34.53,3.84-9.51,15.58-11.77,22.38-13.47,6.8-1.7,8.31-6.53,7.65-6.19-7.67,3.97-11.7,1.26-25.56,5.04-13.86,3.78-20.92,17.01-22.68,25.83-1.76,8.82-2.52,20.29,3.53,35.91,6.05,15.62,9.95,22.93,10.71,40.2,1.13,14.87,7.88,22.62,14.43,26.84,6.55,4.22,8.25,3.47,7.25-.63-1.89-6.93-1.89-13.99-1.26-13.73,.63,.25,3.78,21.42,21.29,26.33,17.51,4.91,27.34-5.67,28.35-5.8,1.01-.13,4.79,2.52,10.21,2.14,5.42-.38,10.08-3.65,14.87-10.08,4.79-6.43,6.17-20.54,10.46-41.2,4.28-20.66,15.22-24.98,16.73-49.65,1.51-24.67-19.94-35.63-24.95-37.9Z"/>
        <path d="M105.28,2.84c-.04-1.55-1.44-2.39-3.31-2.83-3.78-.07-7.87,.32-12.29,1.46-20.09,5.2-26.05,25.23-26.71,28.45-.66,3.21-2.17,13.89-6.33,17.86-4.16,3.97-12.38,7.18-10.49,10.02,.93,1.39,1.61,2.65,6.33,1.89,4.72-.76,10.49,2.93,12.1,4.44,1.61,1.51,5.48,3.59,10.11,.66,4.63-2.93,10.4-5.39,11.62-5.76,1.23-.38,7.75,0,11.62-.09,3.87-.09,4.73-3.97,1.13-4.54-3.59-.57-19-3.21-17.67-15.97,1.32-12.76,11.77-19.08,19.74-20.12,2.38-.31,4-.05,4.32-1.21,.19-.69-.07-9.48-.18-14.25Zm-24.57,25.84c-1.83,3.95-3.14,7.4-3.33,16.28-.19,8.88,5.3,6.72,5.12,8.92-.19,2.2-5.42,4.13-7.56,3.97-4.22-.31-5.35-2.71-4.22-3.59,1.13-.88,2.35-1.96,3.16-7.13,1.22-7.73,3.34-13.86,5.65-18.32,2.51-4.83,5.71-7.47,10.41-10.64-4.47,3.7-7.4,6.56-9.23,10.5Z"/>
      </g>
    </g>
  </g>
</svg>